<svg width="1024" height="1024" viewBox="0 0 1024 1024" fill="none" xmlns="http://www.w3.org/2000/svg">
<path d="M908 512C908 730.705 730.705 908 512 908C293.295 908 116 730.705 116 512C116 293.295 293.295 116 512 116C730.705 116 908 293.295 908 512ZM234.8 512C234.8 665.093 358.907 789.2 512 789.2C665.093 789.2 789.2 665.093 789.2 512C789.2 358.907 665.093 234.8 512 234.8C358.907 234.8 234.8 358.907 234.8 512Z" fill="#9DBEFF"/>
<rect x="637.933" y="559.52" width="377.542" height="118.61" rx="59.3048" transform="rotate(44.3674 637.933 559.52)" fill="#6899FC"/>
<rect x="637.933" y="559.52" width="377.542" height="118.61" rx="59.3048" transform="rotate(44.3674 637.933 559.52)" fill="#6899FC"/>
</svg>
