<svg width="836" height="286" viewBox="0 0 836 286" fill="none" xmlns="http://www.w3.org/2000/svg">
<path d="M17.3438 58.3125H77.8125C90.5469 58.3125 101.328 60.6953 110.156 65.4609C118.984 70.1484 125.586 76.6328 129.961 84.9141C134.414 93.1953 136.641 102.688 136.641 113.391C136.641 124.016 134.414 133.469 129.961 141.75C125.586 150.031 118.984 156.555 110.156 161.32C101.328 166.086 90.5469 168.469 77.8125 168.469H43.125V228H17.3438V58.3125ZM75.2344 146.438C87.1875 146.438 96.0547 143.469 101.836 137.531C107.695 131.516 110.625 123.469 110.625 113.391C110.625 103.234 107.734 95.1875 101.953 89.25C96.1719 83.3125 87.2656 80.3438 75.2344 80.3438H43.125V146.438H75.2344ZM214.922 230.578C202.578 230.578 191.836 227.883 182.695 222.492C173.633 217.102 166.641 209.484 161.719 199.641C156.875 189.797 154.453 178.312 154.453 165.188C154.453 152.219 156.875 140.734 161.719 130.734C166.641 120.734 173.555 112.961 182.461 107.414C191.367 101.867 201.641 99.0938 213.281 99.0938C223.516 99.0938 232.891 101.32 241.406 105.773C249.922 110.227 256.758 117.258 261.914 126.867C267.148 136.398 269.766 148.469 269.766 163.078V171.984H179.297C179.531 179.875 181.133 186.711 184.102 192.492C187.148 198.195 191.328 202.531 196.641 205.5C201.953 208.469 208.125 209.953 215.156 209.953C221.953 209.953 227.695 208.703 232.383 206.203C237.07 203.625 240.547 200.266 242.812 196.125H268.125C266.25 203 262.891 209.055 258.047 214.289C253.203 219.445 247.07 223.469 239.648 226.359C232.305 229.172 224.062 230.578 214.922 230.578ZM245.156 153.234C245.156 146.75 243.828 140.969 241.172 135.891C238.594 130.812 234.922 126.867 230.156 124.055C225.391 121.164 219.844 119.719 213.516 119.719C207.031 119.719 201.25 121.242 196.172 124.289C191.172 127.258 187.227 131.32 184.336 136.477C181.445 141.555 179.805 147.141 179.414 153.234H245.156ZM545.391 229.641C542.422 229.641 539.609 228.898 536.953 227.414C534.375 225.93 532.344 223.898 530.859 221.32C529.375 218.742 528.672 215.969 528.75 213C528.672 210.031 529.375 207.258 530.859 204.68C532.344 202.102 534.375 200.07 536.953 198.586C539.609 197.102 542.422 196.359 545.391 196.359C548.281 196.359 551.016 197.102 553.594 198.586C556.172 200.07 558.203 202.102 559.688 204.68C561.25 207.258 562.031 210.031 562.031 213C562.031 215.969 561.25 218.742 559.688 221.32C558.203 223.898 556.172 225.93 553.594 227.414C551.016 228.898 548.281 229.641 545.391 229.641ZM673.125 100.734H697.969V228H673.594V205.969H672.188C669.141 213.078 664.336 218.82 657.773 223.195C651.211 227.492 643.359 229.641 634.219 229.641C625.938 229.641 618.633 227.805 612.305 224.133C605.977 220.461 601.055 215.031 597.539 207.844C594.023 200.656 592.266 191.906 592.266 181.594V100.734H617.344V178.547C617.344 184.25 618.438 189.25 620.625 193.547C622.812 197.844 625.82 201.164 629.648 203.508C633.555 205.773 638.047 206.906 643.125 206.906C647.969 206.906 652.695 205.734 657.305 203.391C661.914 200.969 665.703 197.375 668.672 192.609C671.641 187.766 673.125 181.906 673.125 175.031V100.734ZM799.922 135.422C798.75 130.188 796.094 126.125 791.953 123.234C787.891 120.266 782.5 118.781 775.781 118.781C771.094 118.781 766.875 119.562 763.125 121.125C759.375 122.609 756.445 124.641 754.336 127.219C752.305 129.797 751.328 132.688 751.406 135.891C751.25 139.719 752.773 142.961 755.977 145.617C759.258 148.273 764.375 150.422 771.328 152.062L791.484 156.75C803.203 159.328 811.914 163.469 817.617 169.172C823.32 174.797 826.25 182.141 826.406 191.203C826.328 198.859 824.18 205.695 819.961 211.711C815.82 217.648 809.844 222.297 802.031 225.656C794.219 228.938 785 230.578 774.375 230.578C759.219 230.578 747.188 227.336 738.281 220.852C729.375 214.367 724.141 205.188 722.578 193.312H748.125C750.234 204.719 758.906 210.422 774.141 210.422C782.266 210.422 788.711 208.898 793.477 205.852C798.32 202.727 800.781 198.469 800.859 193.078C800.703 188.938 799.023 185.5 795.82 182.766C792.695 180.031 787.812 177.922 781.172 176.438L761.25 172.219C749.766 169.641 741.055 165.383 735.117 159.445C729.258 153.508 726.328 146.125 726.328 137.297C726.328 129.797 728.359 123.156 732.422 117.375C736.562 111.594 742.344 107.102 749.766 103.898C757.188 100.695 765.781 99.0938 775.547 99.0938C784.844 99.0938 792.969 100.617 799.922 103.664C806.953 106.633 812.5 110.852 816.562 116.32C820.703 121.789 823.203 128.156 824.062 135.422H799.922Z" fill="white"/>
<path d="M486 146.188C486 198.102 444.81 240.188 394 240.188C343.19 240.188 302 198.102 302 146.188C302 94.2727 343.19 52.1875 394 52.1875C444.81 52.1875 486 94.2727 486 146.188ZM329.6 146.188C329.6 182.528 358.433 211.987 394 211.987C429.567 211.987 458.4 182.528 458.4 146.188C458.4 109.847 429.567 80.3875 394 80.3875C358.433 80.3875 329.6 109.847 329.6 146.188Z" fill="#9DBEFF"/>
<rect width="88.6146" height="27.8526" rx="13.9263" transform="matrix(0.707311 0.706902 -0.691533 0.722344 423.21 157.427)" fill="#6899FC"/>
</svg>
